{"title":"Mi Ultimo tango (1960) Sara Montiel.avi","uid":4580499,"size":809396602,"categoryP":"video","categoryS":"movies","magnet":"?xt=urn:btih:548ba0d86befbf1dcd8030e211be2b0c31214229&amp;dn=Mi+Ultimo+tango+%281960%29+Sara+Montiel.avi&amp;tr=udp%3A%2F%2Ftracker.openbittorrent.com%3A80&amp;tr=udp%3A%2F%2Fopen.demonii.com%3A1337&amp;tr=udp%3A%2F%2Ftracker.coppersurfer.tk%3A6969&amp;tr=udp%3A%2F%2Fexodus.desync.com%3A6969","seeders":2,"leechers":0,"uploader":"johnefp","files":-1,"time":1229402403,"description":"NO SUBS\n=======\n\nFilm based on the tango 'Caminito de gloria'. &lt;a href=&quot;\nhttp://www.imdb.com/title/tt0054080/&quot; rel=&quot;nofollow&quot; target=&quot;_NEW&quot;&gt;\nhttp://www.imdb.com/title/tt0054080/&lt;/a&gt;\n\nPreview:\n\nDirector:\nLuis CÃƒÂ©sar Amadori\n\n        Sara Montiel\t ... \tMarta Andreu\n\tMaurice Ronet\t... \tDario Ledesma\n\tIsabel GarcÃƒÂ©s\t... \tClarisa\n\tLaura Granados\t\t\n\tMilo Quesada\t\n\n\n   Video\n      Format : MPEG-4 Visual\n      Format settings, BVOP : Yes\n      Format settings, QPel : No\n      Format settings, GMC : No warppoints\n      Format settings, Matrix : Default\n      Muxing mode : Packed bitstream\n      Codec ID : DX50\n      Codec ID/Hint : DivX 5\n      Duration : 1h 57mn\n      Bit rate : 781 Kbps\n      Width : 720 pixels\n      Height : 480 pixels\n      Display aspect ratio : 1.500\n      Frame rate : 25.000 fps\n      Standard : NTSC\n      Resolution : 24 bits\n      Colorimetry : 4:2:0\n      Scan type : Progressive\n      Bits/(Pixel*Frame) : 0.090\n      Stream size : 656 MiB (85%)\n      Title : Video\n      Writing library : DivX 6.2.5 (UTC 2006-06-16)\n   Audio\n      Format : MPEG Audio\n      Format version : Version 1\n      Format profile : Layer 3\n      Codec ID : 55\n      Codec ID/Hint : MP3\n      Duration : 1h 57mn\n      Bit rate mode : Constant\n      Bit rate : 128 Kbps\n      Channel(s) : 2 channels\n      Sampling rate : 48.0 KHz\n      Resolution : 16 bits\n      Stream size : 108 MiB (14%)\n      Alignment : Split accross interleaves\n      Interleave, duration : 40 ms (1.00 video frame)\n      Interleave, preload duration : 50 ms\n      Title : Audio\n\nENJOY  AND  SEED\n","torrent":{"xt":"urn:btih:548ba0d86befbf1dcd8030e211be2b0c31214229","amp;dn":"Mi+Ultimo+tango+%281960%29+Sara+Montiel.avi","amp;tr":["udp%3A%2F%2Ftracker.openbittorrent.com%3A80","udp%3A%2F%2Fopen.demonii.com%3A1337","udp%3A%2F%2Ftracker.coppersurfer.tk%3A6969","udp%3A%2F%2Fexodus.desync.com%3A6969"],"infoHash":"548ba0d86befbf1dcd8030e211be2b0c31214229","infoHashBuffer":{"type":"Buffer","data":[84,139,160,216,107,239,191,29,205,128,48,226,17,190,43,12,49,33,66,41]},"announce":[],"urlList":[]}}